<svg width="599" height="167" viewBox="0 0 599 167" fill="none" xmlns="http://www.w3.org/2000/svg">
<path d="M14.8162 145.022C29.8172 174.04 70.1463 174.04 85.1473 145.022C94.6158 126.705 99.9635 105.913 99.9635 83.8704C99.9635 61.6819 94.5445 40.7593 84.9581 22.3547C69.9784 -6.40428 29.9851 -6.40427 15.0054 22.3547C5.41901 40.7593 0 61.6819 0 83.8704C0 105.913 5.34773 126.705 14.8162 145.022Z" fill="#2B2C54"/>
<path fill-rule="evenodd" clip-rule="evenodd" d="M19.0891 16.512L19.6697 15.9314L21.0959 17.3576L21.5347 17.7965L23.8656 20.1273L26.1808 22.4425L32.3976 28.6594L32.4811 28.7429L37.729 33.9908L45.5591 41.8209L50.4569 46.7187L50.4627 46.7129L58.2928 54.543L63.1906 59.4408L75.0709 71.321L80.042 76.2922L87.7988 84.049L79.7607 92.087L75.0709 96.7769L69.6661 102.182L63.1906 108.657L58.0116 113.836L56.9382 114.91L61.9093 119.881L69.6661 127.638L85.7985 143.77L85.3022 144.672L84.5147 146.187C84.5147 146.187 83.8694 147.317 83.4726 148.004C82.8668 148.913 82.273 149.822 82.273 149.822L81.1825 151.337L80.8333 151.756L79.5518 150.474L68.1687 139.091L55.4338 126.356L50.4627 121.385L43.9621 114.884L42.7059 113.628L37.7348 108.657L25.8545 96.7769L20.9567 91.8791L13.1266 84.049L20.6754 76.5001L25.8545 71.321L31.2535 65.922L37.729 59.4466L37.7348 59.4408L42.4246 54.7509L43.9814 53.1941L39.0837 48.2963L31.2535 40.4662L15.0593 24.272L14.6204 23.8331C14.6732 23.729 14.7262 23.6249 14.7792 23.5209C14.9471 23.192 15.1164 22.8639 15.2869 22.5365C16.4187 20.3642 17.6933 18.356 19.0891 16.512ZM50.2548 62.5811L55.1526 67.4788L55.1539 67.4802L59.276 71.6023L62.9827 75.309L67.0328 79.3591L72.004 84.3303L67.3141 89.0201L62.9827 93.3515L59.276 97.0582L55.4338 100.9L50.2548 106.079L45.2836 101.108L41.2335 97.0582L37.5268 93.3515L33.4034 89.228L28.5056 84.3303L33.6847 79.1512L37.5268 75.309L41.2335 71.6023L45.5591 67.2767L45.5649 67.2709L50.2548 62.5811Z" fill="white"/>
<path d="M153.402 120H146.42V66.2891H152.914V72.4902C154.607 70.1139 156.446 68.3724 158.432 67.2656C160.45 66.1589 162.794 65.5729 165.463 65.5078L165.512 72.9785C161.182 73.3691 158.074 74.6712 156.186 76.8848C154.33 79.0658 153.402 82.6302 153.402 87.5781V120ZM224.203 95.293H175.717C176.14 101.152 178.256 105.889 182.064 109.502C185.873 113.115 190.626 114.922 196.322 114.922C200.359 114.922 203.988 113.88 207.211 111.797C210.434 109.681 212.924 106.751 214.682 103.008H222.494C220.02 108.965 216.537 113.538 212.045 116.729C207.585 119.919 202.41 121.514 196.518 121.514C188.705 121.514 182.097 118.73 176.693 113.164C171.29 107.598 168.588 100.908 168.588 93.0957C168.588 84.9251 171.225 78.1706 176.498 72.832C181.804 67.4935 188.575 64.8242 196.811 64.8242C204.883 64.8242 211.459 67.6074 216.537 73.1738C221.648 78.7077 224.203 85.918 224.203 94.8047V95.293ZM216.586 89.4824C215.284 83.4603 212.891 78.9355 209.408 75.9082C205.925 72.8483 201.384 71.3184 195.785 71.3184C190.577 71.3184 186.166 72.9622 182.553 76.25C178.939 79.5052 176.726 83.916 175.912 89.4824H216.586ZM228.744 103.105H235.824V103.301C235.824 106.654 236.785 109.437 238.705 111.65C240.626 113.831 243.002 114.922 245.834 114.922C248.536 114.922 250.782 114.076 252.572 112.383C254.363 110.69 255.258 108.558 255.258 105.986C255.258 103.415 254.542 101.348 253.109 99.7852C251.71 98.2227 249.154 96.7578 245.443 95.3906C239.486 93.2747 235.596 91.11 233.773 88.8965C231.951 86.6829 231.039 83.7207 231.039 80.0098C231.039 75.8105 232.553 72.2461 235.58 69.3164C238.64 66.3867 242.335 64.9219 246.664 64.9219C251.254 64.9219 254.9 66.224 257.602 68.8281C260.303 71.4323 261.752 75.0618 261.947 79.7168H254.574C254.411 77.1777 253.598 75.2083 252.133 73.8086C250.701 72.4089 248.731 71.709 246.225 71.709C243.979 71.709 242.107 72.474 240.609 74.0039C239.112 75.5013 238.363 77.373 238.363 79.6191C238.363 81.2142 238.673 82.5651 239.291 83.6719C239.91 84.7461 240.935 85.7227 242.367 86.6016C243.669 87.4154 245.557 88.1966 248.031 88.9453C250.538 89.694 252.214 90.2474 253.061 90.6055C256.413 92.0378 258.871 93.9421 260.434 96.3184C262.029 98.6947 262.826 101.722 262.826 105.4C262.826 110.023 261.215 113.848 257.992 116.875C254.77 119.902 250.684 121.416 245.736 121.416C240.691 121.416 236.638 119.772 233.578 116.484C230.518 113.164 228.907 108.704 228.744 103.105ZM316.488 92.8027C316.488 87.1061 314.454 82.1419 310.385 77.9102C306.316 73.6458 301.628 71.5137 296.322 71.5137C290.561 71.5137 285.645 73.6458 281.576 77.9102C277.54 82.1419 275.521 87.3991 275.521 93.6816C275.521 99.6712 277.54 104.733 281.576 108.867C285.613 112.969 290.463 115.02 296.127 115.02C301.596 115.02 306.348 112.855 310.385 108.525C314.454 104.163 316.488 98.9225 316.488 92.8027ZM316.488 111.504C314.34 114.596 311.426 117.021 307.748 118.779C304.102 120.537 300.163 121.416 295.932 121.416C288.054 121.416 281.495 118.73 276.254 113.359C271.013 107.956 268.393 101.299 268.393 93.3887C268.393 85.3483 271.062 78.6263 276.4 73.2227C281.771 67.819 288.477 65.1172 296.518 65.1172C300.652 65.1172 304.444 65.9635 307.895 67.6562C311.345 69.3164 314.21 71.7253 316.488 74.8828V66.2891H323.227V120H316.488V111.504ZM343.295 124.395C344.337 127.52 346.225 129.945 348.959 131.67C351.693 133.428 355.014 134.307 358.92 134.307C365.04 134.307 369.939 132.272 373.617 128.203C377.328 124.134 379.184 118.698 379.184 111.895V110.479C376.579 114.027 373.617 116.712 370.297 118.535C366.977 120.326 363.314 121.221 359.311 121.221C351.238 121.221 344.532 118.535 339.193 113.164C333.855 107.76 331.186 101.038 331.186 92.998C331.186 85.0879 333.822 78.4473 339.096 73.0762C344.369 67.7051 350.896 65.0195 358.676 65.0195C363.201 65.0195 367.107 65.8333 370.395 67.4609C373.715 69.0885 376.645 71.6276 379.184 75.0781V66.2891H385.922V111.113C385.922 120.488 383.562 127.812 378.842 133.086C374.154 138.359 367.676 140.996 359.408 140.996C353.321 140.996 348.096 139.482 343.734 136.455C339.372 133.46 336.557 129.44 335.287 124.395H343.295ZM338.51 92.7051C338.51 98.9876 340.495 104.245 344.467 108.477C348.471 112.708 353.288 114.824 358.92 114.824C364.226 114.824 368.913 112.708 372.982 108.477C377.051 104.212 379.086 99.2155 379.086 93.4863C379.086 87.3665 377.084 82.1419 373.08 77.8125C369.076 73.4831 364.356 71.3184 358.92 71.3184C353.321 71.3184 348.52 73.3854 344.516 77.5195C340.512 81.6211 338.51 86.6829 338.51 92.7051ZM403.5 120H396.518V66.2891H403.012V72.4902C404.704 70.1139 406.544 68.3724 408.529 67.2656C410.548 66.1589 412.891 65.5729 415.561 65.5078L415.609 72.9785C411.28 73.3691 408.171 74.6712 406.283 76.8848C404.428 79.0658 403.5 82.6302 403.5 87.5781V120ZM466.977 92.8027C466.977 87.1061 464.942 82.1419 460.873 77.9102C456.804 73.6458 452.117 71.5137 446.811 71.5137C441.049 71.5137 436.133 73.6458 432.064 77.9102C428.028 82.1419 426.01 87.3991 426.01 93.6816C426.01 99.6712 428.028 104.733 432.064 108.867C436.101 112.969 440.951 115.02 446.615 115.02C452.084 115.02 456.837 112.855 460.873 108.525C464.942 104.163 466.977 98.9225 466.977 92.8027ZM466.977 111.504C464.828 114.596 461.915 117.021 458.236 118.779C454.59 120.537 450.652 121.416 446.42 121.416C438.542 121.416 431.983 118.73 426.742 113.359C421.501 107.956 418.881 101.299 418.881 93.3887C418.881 85.3483 421.55 78.6263 426.889 73.2227C432.26 67.819 438.965 65.1172 447.006 65.1172C451.14 65.1172 454.932 65.9635 458.383 67.6562C461.833 69.3164 464.698 71.7253 466.977 74.8828V66.2891H473.715V120H466.977V111.504ZM489.291 120V73.2227H479.086V66.2891H489.291V48.9062H496.176V66.2891H506.381V73.2227H496.176V120H489.291ZM518.93 59.9902H512.045V48.9062H518.93V59.9902ZM512.045 120V66.2891H518.93V120H512.045ZM575.473 92.8027C575.473 87.1061 573.438 82.1419 569.369 77.9102C565.3 73.6458 560.613 71.5137 555.307 71.5137C549.545 71.5137 544.63 73.6458 540.561 77.9102C536.524 82.1419 534.506 87.3991 534.506 93.6816C534.506 99.6712 536.524 104.733 540.561 108.867C544.597 112.969 549.447 115.02 555.111 115.02C560.58 115.02 565.333 112.855 569.369 108.525C573.438 104.163 575.473 98.9225 575.473 92.8027ZM575.473 111.504C573.324 114.596 570.411 117.021 566.732 118.779C563.087 120.537 559.148 121.416 554.916 121.416C547.038 121.416 540.479 118.73 535.238 113.359C529.997 107.956 527.377 101.299 527.377 93.3887C527.377 85.3483 530.046 78.6263 535.385 73.2227C540.756 67.819 547.462 65.1172 555.502 65.1172C559.636 65.1172 563.428 65.9635 566.879 67.6562C570.329 69.3164 573.194 71.7253 575.473 74.8828V66.2891H582.211V120H575.473V111.504Z" fill="#2B2C54"/>
</svg>
