<svg width="599" height="166" viewBox="0 0 599 166" fill="none" xmlns="http://www.w3.org/2000/svg">
<path d="M153.402 119H146.42V65.2891H152.914V71.4902C154.607 69.1139 156.446 67.3724 158.432 66.2656C160.45 65.1589 162.794 64.5729 165.463 64.5078L165.512 71.9785C161.182 72.3691 158.074 73.6712 156.186 75.8848C154.33 78.0658 153.402 81.6302 153.402 86.5781V119ZM224.203 94.293H175.717C176.14 100.152 178.256 104.889 182.064 108.502C185.873 112.115 190.626 113.922 196.322 113.922C200.359 113.922 203.988 112.88 207.211 110.797C210.434 108.681 212.924 105.751 214.682 102.008H222.494C220.02 107.965 216.537 112.538 212.045 115.729C207.585 118.919 202.41 120.514 196.518 120.514C188.705 120.514 182.097 117.73 176.693 112.164C171.29 106.598 168.588 99.9082 168.588 92.0957C168.588 83.9251 171.225 77.1706 176.498 71.832C181.804 66.4935 188.575 63.8242 196.811 63.8242C204.883 63.8242 211.459 66.6074 216.537 72.1738C221.648 77.7077 224.203 84.918 224.203 93.8047V94.293ZM216.586 88.4824C215.284 82.4603 212.891 77.9355 209.408 74.9082C205.925 71.8483 201.384 70.3184 195.785 70.3184C190.577 70.3184 186.166 71.9622 182.553 75.25C178.939 78.5052 176.726 82.916 175.912 88.4824H216.586ZM228.744 102.105H235.824V102.301C235.824 105.654 236.785 108.437 238.705 110.65C240.626 112.831 243.002 113.922 245.834 113.922C248.536 113.922 250.782 113.076 252.572 111.383C254.363 109.69 255.258 107.558 255.258 104.986C255.258 102.415 254.542 100.348 253.109 98.7852C251.71 97.2227 249.154 95.7578 245.443 94.3906C239.486 92.2747 235.596 90.11 233.773 87.8965C231.951 85.6829 231.039 82.7207 231.039 79.0098C231.039 74.8105 232.553 71.2461 235.58 68.3164C238.64 65.3867 242.335 63.9219 246.664 63.9219C251.254 63.9219 254.9 65.224 257.602 67.8281C260.303 70.4323 261.752 74.0618 261.947 78.7168H254.574C254.411 76.1777 253.598 74.2083 252.133 72.8086C250.701 71.4089 248.731 70.709 246.225 70.709C243.979 70.709 242.107 71.474 240.609 73.0039C239.112 74.5013 238.363 76.373 238.363 78.6191C238.363 80.2142 238.673 81.5651 239.291 82.6719C239.91 83.7461 240.935 84.7227 242.367 85.6016C243.669 86.4154 245.557 87.1966 248.031 87.9453C250.538 88.694 252.214 89.2474 253.061 89.6055C256.413 91.0378 258.871 92.9421 260.434 95.3184C262.029 97.6947 262.826 100.722 262.826 104.4C262.826 109.023 261.215 112.848 257.992 115.875C254.77 118.902 250.684 120.416 245.736 120.416C240.691 120.416 236.638 118.772 233.578 115.484C230.518 112.164 228.907 107.704 228.744 102.105ZM316.488 91.8027C316.488 86.1061 314.454 81.1419 310.385 76.9102C306.316 72.6458 301.628 70.5137 296.322 70.5137C290.561 70.5137 285.645 72.6458 281.576 76.9102C277.54 81.1419 275.521 86.3991 275.521 92.6816C275.521 98.6712 277.54 103.733 281.576 107.867C285.613 111.969 290.463 114.02 296.127 114.02C301.596 114.02 306.348 111.855 310.385 107.525C314.454 103.163 316.488 97.9225 316.488 91.8027ZM316.488 110.504C314.34 113.596 311.426 116.021 307.748 117.779C304.102 119.537 300.163 120.416 295.932 120.416C288.054 120.416 281.495 117.73 276.254 112.359C271.013 106.956 268.393 100.299 268.393 92.3887C268.393 84.3483 271.062 77.6263 276.4 72.2227C281.771 66.819 288.477 64.1172 296.518 64.1172C300.652 64.1172 304.444 64.9635 307.895 66.6562C311.345 68.3164 314.21 70.7253 316.488 73.8828V65.2891H323.227V119H316.488V110.504ZM343.295 123.395C344.337 126.52 346.225 128.945 348.959 130.67C351.693 132.428 355.014 133.307 358.92 133.307C365.04 133.307 369.939 131.272 373.617 127.203C377.328 123.134 379.184 117.698 379.184 110.895V109.479C376.579 113.027 373.617 115.712 370.297 117.535C366.977 119.326 363.314 120.221 359.311 120.221C351.238 120.221 344.532 117.535 339.193 112.164C333.855 106.76 331.186 100.038 331.186 91.998C331.186 84.0879 333.822 77.4473 339.096 72.0762C344.369 66.7051 350.896 64.0195 358.676 64.0195C363.201 64.0195 367.107 64.8333 370.395 66.4609C373.715 68.0885 376.645 70.6276 379.184 74.0781V65.2891H385.922V110.113C385.922 119.488 383.562 126.812 378.842 132.086C374.154 137.359 367.676 139.996 359.408 139.996C353.321 139.996 348.096 138.482 343.734 135.455C339.372 132.46 336.557 128.44 335.287 123.395H343.295ZM338.51 91.7051C338.51 97.9876 340.495 103.245 344.467 107.477C348.471 111.708 353.288 113.824 358.92 113.824C364.226 113.824 368.913 111.708 372.982 107.477C377.051 103.212 379.086 98.2155 379.086 92.4863C379.086 86.3665 377.084 81.1419 373.08 76.8125C369.076 72.4831 364.356 70.3184 358.92 70.3184C353.321 70.3184 348.52 72.3854 344.516 76.5195C340.512 80.6211 338.51 85.6829 338.51 91.7051ZM403.5 119H396.518V65.2891H403.012V71.4902C404.704 69.1139 406.544 67.3724 408.529 66.2656C410.548 65.1589 412.891 64.5729 415.561 64.5078L415.609 71.9785C411.28 72.3691 408.171 73.6712 406.283 75.8848C404.428 78.0658 403.5 81.6302 403.5 86.5781V119ZM466.977 91.8027C466.977 86.1061 464.942 81.1419 460.873 76.9102C456.804 72.6458 452.117 70.5137 446.811 70.5137C441.049 70.5137 436.133 72.6458 432.064 76.9102C428.028 81.1419 426.01 86.3991 426.01 92.6816C426.01 98.6712 428.028 103.733 432.064 107.867C436.101 111.969 440.951 114.02 446.615 114.02C452.084 114.02 456.837 111.855 460.873 107.525C464.942 103.163 466.977 97.9225 466.977 91.8027ZM466.977 110.504C464.828 113.596 461.915 116.021 458.236 117.779C454.59 119.537 450.652 120.416 446.42 120.416C438.542 120.416 431.983 117.73 426.742 112.359C421.501 106.956 418.881 100.299 418.881 92.3887C418.881 84.3483 421.55 77.6263 426.889 72.2227C432.26 66.819 438.965 64.1172 447.006 64.1172C451.14 64.1172 454.932 64.9635 458.383 66.6562C461.833 68.3164 464.698 70.7253 466.977 73.8828V65.2891H473.715V119H466.977V110.504ZM489.291 119V72.2227H479.086V65.2891H489.291V47.9062H496.176V65.2891H506.381V72.2227H496.176V119H489.291ZM518.93 58.9902H512.045V47.9062H518.93V58.9902ZM512.045 119V65.2891H518.93V119H512.045ZM575.473 91.8027C575.473 86.1061 573.438 81.1419 569.369 76.9102C565.3 72.6458 560.613 70.5137 555.307 70.5137C549.545 70.5137 544.63 72.6458 540.561 76.9102C536.524 81.1419 534.506 86.3991 534.506 92.6816C534.506 98.6712 536.524 103.733 540.561 107.867C544.597 111.969 549.447 114.02 555.111 114.02C560.58 114.02 565.333 111.855 569.369 107.525C573.438 103.163 575.473 97.9225 575.473 91.8027ZM575.473 110.504C573.324 113.596 570.411 116.021 566.732 117.779C563.087 119.537 559.148 120.416 554.916 120.416C547.038 120.416 540.479 117.73 535.238 112.359C529.997 106.956 527.377 100.299 527.377 92.3887C527.377 84.3483 530.046 77.6263 535.385 72.2227C540.756 66.819 547.462 64.1172 555.502 64.1172C559.636 64.1172 563.428 64.9635 566.879 66.6562C570.329 68.3164 573.194 70.7253 575.473 73.8828V65.2891H582.211V119H575.473V110.504Z" fill="#FAF9F6"/>
<path d="M14.8162 144.236C29.8172 173.255 70.1463 173.255 85.1473 144.236C94.6158 125.92 99.9635 105.127 99.9635 83.085C99.9635 60.8964 94.5445 39.9738 84.9581 21.5692C69.9784 -7.18974 29.9851 -7.18973 15.0054 21.5692C5.41901 39.9738 0 60.8964 0 83.085C0 105.127 5.34773 125.92 14.8162 144.236Z" fill="#FAF9F6"/>
<path fill-rule="evenodd" clip-rule="evenodd" d="M19.089 15.7265L19.6695 15.146L21.0957 16.5722L21.5346 17.0111L23.8654 19.3419L26.1806 21.6571L32.3975 27.8739L32.481 27.9575L37.7288 33.2053L45.559 41.0354L50.4568 45.9332L50.4626 45.9274L58.2927 53.7576L63.1905 58.6553L75.0708 70.5356L80.0419 75.5067L87.7987 83.2635L79.7606 91.3016L75.0708 95.9914L69.666 101.396L63.1905 107.872L58.0114 113.051L56.938 114.124L61.9092 119.095L69.666 126.852L85.7984 142.985L85.3021 143.887L84.5145 145.401C84.5145 145.401 83.8693 146.532 83.4725 147.219C82.8666 148.128 82.2729 149.036 82.2729 149.036L81.1824 150.551L80.8332 150.97L79.5517 149.689L68.1685 138.306L55.4337 125.571L50.4626 120.6L43.9619 114.099L42.7058 112.843L37.7347 107.872L25.8544 95.9914L20.9566 91.0937L13.1265 83.2635L20.6753 75.7147L25.8544 70.5356L31.2534 65.1366L37.7288 58.6612L37.7347 58.6553L42.4245 53.9655L43.9813 52.4087L39.0835 47.5109L31.2534 39.6807L15.0592 23.4865L14.6203 23.0476C14.6731 22.9435 14.726 22.8395 14.7791 22.7355C14.947 22.4066 15.1163 22.0784 15.2868 21.7511C16.4186 19.5787 17.6932 17.5706 19.089 15.7265ZM50.2547 61.7956L55.1524 66.6934L55.1538 66.6947L59.2759 70.8169L62.9826 74.5235L67.0327 78.5737L72.0038 83.5448L67.314 88.2347L62.9826 92.5661L59.2759 96.2727L55.4337 100.115L50.2547 105.294L45.2835 100.323L41.2334 96.2727L37.5267 92.5661L33.4032 88.4426L28.5055 83.5448L33.6845 78.3657L37.5267 74.5235L41.2334 70.8169L45.559 66.4913L45.5648 66.4855L50.2547 61.7956Z" fill="#2B2C54"/>
</svg>
