<svg width="101" height="167" viewBox="0 0 101 167" fill="none" xmlns="http://www.w3.org/2000/svg">
<path d="M15.7055 145.022C30.7065 174.04 71.0355 174.04 86.0366 145.022C95.5051 126.705 100.853 105.913 100.853 83.8704C100.853 61.6819 95.4338 40.7593 85.8474 22.3547C70.8677 -6.40428 30.8744 -6.40427 15.8947 22.3547C6.30829 40.7593 0.889282 61.6819 0.889282 83.8704C0.889282 105.913 6.23701 126.705 15.7055 145.022Z" fill="#2B2C54"/>
<path fill-rule="evenodd" clip-rule="evenodd" d="M19.9784 16.512L20.5589 15.9314L21.9851 17.3577L22.424 17.7965L24.7548 20.1274L27.07 22.4425L33.2869 28.6594L33.3704 28.7429L38.6182 33.9908L46.4484 41.8209L51.3462 46.7187L51.352 46.7129L59.1821 54.543L64.0799 59.4408L75.9602 71.3211L80.9313 76.2922L88.6881 84.049L80.65 92.087L75.9602 96.7769L70.5554 102.182L64.0799 108.657L58.9008 113.836L57.8274 114.91L62.7986 119.881L70.5554 127.638L86.6878 143.77L86.1915 144.672L85.4039 146.187C85.4039 146.187 84.7587 147.317 84.3619 148.004C83.7561 148.913 83.1623 149.822 83.1623 149.822L82.0718 151.337L81.7226 151.756L80.4411 150.474L69.0579 139.091L56.3231 126.356L51.352 121.385L44.8514 114.884L43.5952 113.628L38.6241 108.657L26.7438 96.7769L21.846 91.8791L14.0159 84.049L21.5647 76.5001L26.7438 71.3211L32.1428 65.922L38.6182 59.4466L38.6241 59.4408L43.3139 54.7509L44.8707 53.1941L39.9729 48.2963L32.1428 40.4662L15.9486 24.272L15.5097 23.8331C15.5625 23.729 15.6155 23.6249 15.6685 23.5209C15.8364 23.192 16.0057 22.8639 16.1762 22.5365C17.308 20.3642 18.5826 18.356 19.9784 16.512ZM51.1441 62.5811L56.0418 67.4789L56.0432 67.4802L60.1653 71.6023L63.872 75.309L67.9221 79.3591L72.8932 84.3303L68.2034 89.0201L63.872 93.3515L60.1653 97.0582L56.3231 100.9L51.1441 106.079L46.1729 101.108L42.1228 97.0582L38.4161 93.3515L34.2926 89.2281L29.3949 84.3303L34.5739 79.1512L38.4161 75.309L42.1228 71.6023L46.4484 67.2767L46.4542 67.2709L51.1441 62.5811Z" fill="white"/>
</svg>
